<svg width="1395" height="250" viewBox="0 0 1395 250" fill="none" xmlns="http://www.w3.org/2000/svg">
<rect width="1395" height="250" fill="#F5F5F5"/>
<mask id="mask0_0_1" style="mask-type:luminance" maskUnits="userSpaceOnUse" x="-633" y="-468" width="2658" height="1495">
<path d="M-632.502 -468H2025V1026.02H-632.502V-468Z" fill="white"/>
</mask>
<g mask="url(#mask0_0_1)">
<path d="M41.41 242.651V237.231C41.41 234.11 39.8488 232.55 36.7265 232.55H31.3036C28.1813 232.55 26.6202 230.99 26.6202 227.869V222.449C26.6202 219.329 25.059 217.769 21.9367 217.769H16.5138C13.3915 217.769 11.8303 216.208 11.8303 213.088V50.9825C11.8303 47.8619 13.3915 46.3016 16.5138 46.3016H21.9367C25.059 46.3016 26.6202 44.7414 26.6202 41.6208V36.2008C26.6202 33.0803 28.1813 31.52 31.3036 31.52H36.7265C39.8488 31.52 41.41 29.9597 41.41 26.8392V21.4192C41.41 18.2987 42.9711 16.7384 46.0934 16.7384H151.101C154.388 16.7384 156.031 18.3808 156.031 21.6656V26.5928C156.031 29.8776 157.674 31.52 160.961 31.52H169.588C172.875 31.52 174.518 33.1624 174.518 36.4472V78.3285C174.518 81.6133 172.875 83.2557 169.588 83.2557H127.684C124.397 83.2557 122.754 81.6133 122.754 78.3285V73.1549C122.754 70.0344 121.193 68.4741 118.071 68.4741H112.894C109.608 68.4741 107.964 66.8317 107.964 63.5469V36.2008C107.964 33.0803 106.403 31.52 103.281 31.52H97.8578C94.7355 31.52 93.1744 33.0803 93.1744 36.2008V41.6208C93.1744 44.7414 91.6132 46.3016 88.4909 46.3016H83.068C79.9457 46.3016 78.3846 47.8619 78.3846 50.9825V213.088C78.3846 216.208 79.9457 217.769 83.068 217.769H88.4909C91.6132 217.769 93.1744 219.329 93.1744 222.449V227.869C93.1744 230.99 94.7355 232.55 97.8578 232.55H103.281C106.403 232.55 107.964 230.99 107.964 227.869V180.814C107.964 177.694 106.403 176.134 103.281 176.134H97.8578C94.7355 176.134 93.1744 174.573 93.1744 171.453V144.107C93.1744 140.822 94.8177 139.18 98.1043 139.18H169.588C172.875 139.18 174.518 140.822 174.518 144.107V242.651C174.518 245.772 172.957 247.332 169.835 247.332H142.967C139.845 247.332 138.283 245.772 138.283 242.651V237.477C138.283 234.193 136.64 232.55 133.353 232.55H128.423C125.137 232.55 123.494 234.193 123.494 237.477V242.405C123.494 245.689 121.85 247.332 118.564 247.332H46.0934C42.9711 247.332 41.41 245.772 41.41 242.651Z" fill="#033122" fill-opacity="0.4"/>
<path d="M209.015 242.651V79.5603C209.015 76.4397 210.576 74.8795 213.698 74.8795H248.701C251.823 74.8795 253.384 76.4397 253.384 79.5603V99.7619C253.384 102.882 254.946 104.443 258.068 104.443H263.491C266.613 104.443 268.174 102.882 268.174 99.7619V94.3419C268.174 91.2214 269.735 89.6611 272.858 89.6611H278.281C281.403 89.6611 282.964 88.1008 282.964 84.9802V79.5603C282.964 76.4397 284.525 74.8795 287.647 74.8795H330.045C333.167 74.8795 334.728 76.4397 334.728 79.5603V84.9802C334.728 88.1008 336.29 89.6611 339.412 89.6611H344.835C347.957 89.6611 349.518 91.2214 349.518 94.3419V128.34C349.518 131.46 347.957 133.021 344.835 133.021H295.042C291.92 133.021 290.359 131.46 290.359 128.34V109.124C290.359 106.003 288.798 104.443 285.676 104.443H280.253C277.13 104.443 275.569 106.003 275.569 109.124V242.651C275.569 245.772 274.008 247.332 270.886 247.332H213.698C210.576 247.332 209.015 245.772 209.015 242.651Z" fill="#033122" fill-opacity="0.4"/>
<path d="M458.213 168.743H438C434.878 168.743 433.316 170.303 433.316 173.424V227.869C433.316 230.99 434.878 232.55 438 232.55H443.423C446.545 232.55 448.106 230.99 448.106 227.869V222.449C448.106 219.329 449.667 217.769 452.79 217.769H458.213C461.335 217.769 462.896 216.208 462.896 213.088V173.424C462.896 170.303 461.335 168.743 458.213 168.743ZM381.552 242.651V237.231C381.552 234.11 379.991 232.55 376.869 232.55H371.446C368.323 232.55 366.762 230.99 366.762 227.869V173.424C366.762 170.303 368.323 168.743 371.446 168.743H376.869C379.991 168.743 381.552 167.183 381.552 164.062V158.642C381.552 155.521 383.113 153.961 386.235 153.961H443.423C446.545 153.961 448.106 152.401 448.106 149.28V143.86C448.106 140.74 449.667 139.18 452.79 139.18H465.608C468.73 139.18 470.291 137.619 470.291 134.499V94.3419C470.291 91.2214 468.73 89.6611 465.608 89.6611H452.79C449.667 89.6611 448.106 91.2214 448.106 94.3419V114.543C448.106 117.664 446.545 119.224 443.423 119.224H438C434.878 119.224 433.316 120.785 433.316 123.905V136.716C433.316 139.837 431.755 141.397 428.633 141.397H378.841C375.718 141.397 374.157 139.837 374.157 136.716V94.3419C374.157 91.2214 375.718 89.6611 378.841 89.6611H387.961C391.083 89.6611 392.644 88.1008 392.644 84.9802V79.5603C392.644 76.4397 394.206 74.8795 397.328 74.8795H509.977C513.099 74.8795 514.66 76.4397 514.66 79.5603V84.9802C514.66 88.1008 516.222 89.6611 519.344 89.6611H524.767C527.889 89.6611 529.45 91.2214 529.45 94.3419V242.651C529.45 245.772 527.889 247.332 524.767 247.332H482.369C479.247 247.332 477.686 245.772 477.686 242.651V237.231C477.686 234.11 476.125 232.55 473.002 232.55H467.58C464.457 232.55 462.896 234.11 462.896 237.231V242.651C462.896 245.772 461.335 247.332 458.213 247.332H386.235C383.113 247.332 381.552 245.772 381.552 242.651Z" fill="#033122" fill-opacity="0.4"/>
<path d="M640.608 104.689H635.185C632.063 104.689 630.501 106.249 630.501 109.37V228.116C630.501 231.236 632.063 232.796 635.185 232.796H640.608C643.73 232.796 645.291 231.236 645.291 228.116V222.696C645.291 219.575 646.852 218.015 649.975 218.015H655.398C658.52 218.015 660.081 216.455 660.081 213.334V94.5883C660.081 91.4677 658.52 89.9074 655.398 89.9074H649.975C646.852 89.9074 645.291 91.4677 645.291 94.5883V100.008C645.291 103.129 643.73 104.689 640.608 104.689ZM593.527 242.897V237.477C593.527 234.357 591.966 232.796 588.843 232.796H583.421C580.298 232.796 578.737 231.236 578.737 228.116V222.696C578.737 219.575 577.176 218.015 574.054 218.015H568.631C565.508 218.015 563.947 216.455 563.947 213.334V109.37C563.947 106.249 565.508 104.689 568.631 104.689H574.054C577.176 104.689 578.737 103.129 578.737 100.008V94.5883C578.737 91.4677 580.298 89.9074 583.421 89.9074H588.843C591.966 89.9074 593.527 88.3471 593.527 85.2266V79.8066C593.527 76.6861 595.088 75.1258 598.21 75.1258H655.398C658.52 75.1258 660.081 73.5655 660.081 70.4449V14.0284C660.081 10.9078 661.642 9.34755 664.765 9.34755H721.952C725.074 9.34755 726.635 10.9078 726.635 14.0284V242.897C726.635 246.018 725.074 247.578 721.952 247.578H598.21C595.088 247.578 593.527 246.018 593.527 242.897Z" fill="#033122" fill-opacity="0.4"/>
<path d="M761.134 242.651V21.419C761.134 18.2984 762.695 16.7381 765.818 16.7381H823.005C826.127 16.7381 827.688 18.2984 827.688 21.419V227.869C827.688 230.99 829.25 232.55 832.372 232.55H837.795C840.917 232.55 842.478 230.99 842.478 227.869V200.277C842.478 197.156 844.039 195.596 847.162 195.596H852.831C855.953 195.596 857.515 194.036 857.515 190.915V185.495C857.515 182.375 859.076 180.814 862.198 180.814H904.349C907.471 180.814 909.032 182.375 909.032 185.495V227.869C909.032 230.99 907.471 232.55 904.349 232.55H898.926C895.804 232.55 894.243 234.11 894.243 237.231V242.651C894.243 245.771 892.681 247.332 889.559 247.332H765.818C762.695 247.332 761.134 245.771 761.134 242.651Z" fill="#033122" fill-opacity="0.4"/>
<path d="M1034.73 242.651V79.5601C1034.73 76.4395 1036.29 74.8792 1039.41 74.8792H1074.41C1077.54 74.8792 1079.1 76.4395 1079.1 79.5601V99.7616C1079.1 102.882 1080.66 104.442 1083.78 104.442H1089.2C1092.33 104.442 1093.89 102.882 1093.89 99.7616V94.3417C1093.89 91.2211 1095.45 89.6608 1098.57 89.6608H1103.99C1107.12 89.6608 1108.68 88.1006 1108.68 84.98V79.5601C1108.68 76.4395 1110.24 74.8792 1113.36 74.8792H1177.94C1181.06 74.8792 1182.63 76.4395 1182.63 79.5601V84.98C1182.63 88.1006 1184.19 89.6608 1187.31 89.6608H1192.73C1195.85 89.6608 1197.42 91.2211 1197.42 94.3417V242.651C1197.42 245.771 1195.85 247.332 1192.73 247.332H1135.55C1132.42 247.332 1130.86 245.771 1130.86 242.651V94.3417C1130.86 91.2211 1129.3 89.6608 1126.18 89.6608H1120.76C1117.63 89.6608 1116.07 91.2211 1116.07 94.3417V99.7616C1116.07 102.882 1114.51 104.442 1111.39 104.442H1105.97C1102.84 104.442 1101.28 106.003 1101.28 109.123V242.651C1101.28 245.771 1099.72 247.332 1096.6 247.332H1039.41C1036.29 247.332 1034.73 245.771 1034.73 242.651Z" fill="#033122" fill-opacity="0.4"/>
<path d="M1231.91 242.651V14.0282C1231.91 10.9076 1233.47 9.34732 1236.6 9.34732H1293.78C1296.91 9.34732 1298.47 10.9076 1298.47 14.0282V141.643C1298.47 144.763 1300.03 146.324 1303.15 146.324H1308.57C1311.7 146.324 1313.26 144.763 1313.26 141.643V136.223C1313.26 133.102 1314.82 131.542 1317.94 131.542H1323.36C1326.49 131.542 1328.05 129.982 1328.05 126.861V79.56C1328.05 76.4395 1329.61 74.8792 1332.73 74.8792H1389.92C1393.04 74.8792 1394.6 76.4395 1394.6 79.56V141.643C1394.6 144.763 1393.04 146.324 1389.92 146.324H1347.52C1344.4 146.324 1342.84 147.884 1342.84 151.005V156.425C1342.84 159.545 1344.4 161.105 1347.52 161.105H1375.13C1378.25 161.105 1379.81 162.666 1379.81 165.786V171.206C1379.81 174.327 1381.37 175.887 1384.49 175.887H1389.92C1393.04 175.887 1394.6 177.447 1394.6 180.568V242.651C1394.6 245.771 1393.04 247.332 1389.92 247.332H1332.73C1329.61 247.332 1328.05 245.771 1328.05 242.651V180.568C1328.05 177.447 1326.49 175.887 1323.36 175.887H1317.94C1314.82 175.887 1313.26 174.327 1313.26 171.206V165.786C1313.26 162.666 1311.7 161.105 1308.57 161.105H1303.15C1300.03 161.105 1298.47 162.666 1298.47 165.786V242.651C1298.47 245.771 1296.91 247.332 1293.78 247.332H1236.6C1233.47 247.332 1231.91 245.771 1231.91 242.651Z" fill="#033122" fill-opacity="0.4"/>
<path d="M29.6937 234.143V228.723C29.6937 225.602 28.1325 224.042 25.0102 224.042H19.5873C16.465 224.042 14.9038 222.482 14.9038 219.361V213.941C14.9038 210.821 13.3427 209.26 10.2204 209.26H4.79746C1.67516 209.26 0.114014 207.7 0.114014 204.58V42.4744C0.114014 39.3539 1.67516 37.7936 4.79746 37.7936H10.2204C13.3427 37.7936 14.9038 36.2333 14.9038 33.1127V27.6928C14.9038 24.5722 16.465 23.0119 19.5873 23.0119H25.0102C28.1325 23.0119 29.6937 21.4517 29.6937 18.3311V12.9112C29.6937 9.79061 31.2548 8.23032 34.3771 8.23032H139.385C142.672 8.23032 144.315 9.87272 144.315 13.1575V18.0847C144.315 21.3695 145.958 23.0119 149.245 23.0119H157.872C161.159 23.0119 162.802 24.6543 162.802 27.9391V69.8204C162.802 73.1052 161.159 74.7477 157.872 74.7477H115.968C112.681 74.7477 111.038 73.1052 111.038 69.8204V64.6469C111.038 61.5263 109.477 59.966 106.354 59.966H101.178C97.8912 59.966 96.2479 58.3236 96.2479 55.0388V27.6928C96.2479 24.5722 94.6867 23.0119 91.5645 23.0119H86.1415C83.0192 23.0119 81.4581 24.5722 81.4581 27.6928V33.1127C81.4581 36.2333 79.8969 37.7936 76.7746 37.7936H71.3517C68.2294 37.7936 66.6682 39.3539 66.6682 42.4744V204.58C66.6682 207.7 68.2294 209.26 71.3517 209.26H76.7746C79.8969 209.26 81.4581 210.821 81.4581 213.941V219.361C81.4581 222.482 83.0192 224.042 86.1415 224.042H91.5645C94.6867 224.042 96.2479 222.482 96.2479 219.361V172.306C96.2479 169.186 94.6867 167.626 91.5645 167.626H86.1415C83.0192 167.626 81.4581 166.065 81.4581 162.945V135.599C81.4581 132.314 83.1014 130.671 86.388 130.671H157.872C161.159 130.671 162.802 132.314 162.802 135.599V234.143C162.802 237.263 161.241 238.824 158.119 238.824H131.251C128.128 238.824 126.567 237.263 126.567 234.143V228.969C126.567 225.685 124.924 224.042 121.637 224.042H116.707C113.421 224.042 111.777 225.685 111.777 228.969V233.897C111.777 237.181 110.134 238.824 106.847 238.824H34.3771C31.2548 238.824 29.6937 237.263 29.6937 234.143Z" fill="#033122"/>
<path d="M197.299 234.143V71.0522C197.299 67.9317 198.86 66.3714 201.982 66.3714H236.985C240.107 66.3714 241.668 67.9317 241.668 71.0522V91.2538C241.668 94.3744 243.229 95.9347 246.352 95.9347H251.774C254.897 95.9347 256.458 94.3744 256.458 91.2538V85.8339C256.458 82.7133 258.019 81.153 261.141 81.153H266.564C269.687 81.153 271.248 79.5927 271.248 76.4722V71.0522C271.248 67.9317 272.809 66.3714 275.931 66.3714H318.329C321.451 66.3714 323.012 67.9317 323.012 71.0522V76.4722C323.012 79.5927 324.573 81.153 327.696 81.153H333.119C336.241 81.153 337.802 82.7133 337.802 85.8339V119.832C337.802 122.952 336.241 124.512 333.119 124.512H283.326C280.204 124.512 278.643 122.952 278.643 119.832V100.616C278.643 97.4949 277.081 95.9347 273.959 95.9347H268.536C265.414 95.9347 263.853 97.4949 263.853 100.616V234.143C263.853 237.263 262.292 238.824 259.169 238.824H201.982C198.86 238.824 197.299 237.263 197.299 234.143Z" fill="#033122"/>
<path d="M446.496 160.235H426.284C423.161 160.235 421.6 161.795 421.6 164.916V219.361C421.6 222.482 423.161 224.042 426.284 224.042H431.707C434.829 224.042 436.39 222.482 436.39 219.361V213.941C436.39 210.821 437.951 209.26 441.073 209.26H446.496C449.619 209.26 451.18 207.7 451.18 204.58V164.916C451.18 161.795 449.619 160.235 446.496 160.235ZM369.836 234.143V228.723C369.836 225.602 368.275 224.042 365.152 224.042H359.729C356.607 224.042 355.046 222.482 355.046 219.361V164.916C355.046 161.795 356.607 160.235 359.729 160.235H365.152C368.275 160.235 369.836 158.674 369.836 155.554V150.134C369.836 147.013 371.397 145.453 374.519 145.453H431.707C434.829 145.453 436.39 143.893 436.39 140.772V135.352C436.39 132.232 437.951 130.671 441.073 130.671H453.891C457.014 130.671 458.575 129.111 458.575 125.991V85.8339C458.575 82.7133 457.014 81.153 453.891 81.153H441.073C437.951 81.153 436.39 82.7133 436.39 85.8339V106.035C436.39 109.156 434.829 110.716 431.707 110.716H426.284C423.161 110.716 421.6 112.277 421.6 115.397V128.208C421.6 131.328 420.039 132.889 416.917 132.889H367.124C364.002 132.889 362.441 131.328 362.441 128.208V85.8339C362.441 82.7133 364.002 81.153 367.124 81.153H376.245C379.367 81.153 380.928 79.5927 380.928 76.4722V71.0522C380.928 67.9317 382.489 66.3714 385.612 66.3714H498.261C501.383 66.3714 502.944 67.9317 502.944 71.0522V76.4722C502.944 79.5927 504.505 81.153 507.628 81.153H513.051C516.173 81.153 517.734 82.7133 517.734 85.8339V234.143C517.734 237.263 516.173 238.824 513.051 238.824H470.653C467.531 238.824 465.97 237.263 465.97 234.143V228.723C465.97 225.602 464.408 224.042 461.286 224.042H455.863C452.741 224.042 451.18 225.602 451.18 228.723V234.143C451.18 237.263 449.619 238.824 446.496 238.824H374.519C371.397 238.824 369.836 237.263 369.836 234.143Z" fill="#033122"/>
<path d="M628.892 96.181H623.469C620.346 96.181 618.785 97.7413 618.785 100.862V219.608C618.785 222.728 620.346 224.288 623.469 224.288H628.892C632.014 224.288 633.575 222.728 633.575 219.608V214.188C633.575 211.067 635.136 209.507 638.258 209.507H643.681C646.804 209.507 648.365 207.947 648.365 204.826V86.0802C648.365 82.9596 646.804 81.3994 643.681 81.3994H638.258C635.136 81.3994 633.575 82.9596 633.575 86.0802V91.5001C633.575 94.6207 632.014 96.181 628.892 96.181ZM581.811 234.389V228.969C581.811 225.849 580.249 224.288 577.127 224.288H571.704C568.582 224.288 567.021 222.728 567.021 219.608V214.188C567.021 211.067 565.46 209.507 562.337 209.507H556.914C553.792 209.507 552.231 207.947 552.231 204.826V100.862C552.231 97.7413 553.792 96.181 556.914 96.181H562.337C565.46 96.181 567.021 94.6207 567.021 91.5001V86.0802C567.021 82.9596 568.582 81.3994 571.704 81.3994H577.127C580.249 81.3994 581.811 79.8391 581.811 76.7185V71.2986C581.811 68.178 583.372 66.6177 586.494 66.6177H643.681C646.804 66.6177 648.365 65.0574 648.365 61.9369V5.52034C648.365 2.39977 649.926 0.839488 653.048 0.839488H710.236C713.358 0.839488 714.919 2.39977 714.919 5.52034V234.389C714.919 237.51 713.358 239.07 710.236 239.07H586.494C583.372 239.07 581.811 237.51 581.811 234.389Z" fill="#033122"/>
<path d="M749.418 234.143V12.9112C749.418 9.79061 750.979 8.23032 754.101 8.23032H811.289C814.411 8.23032 815.972 9.79061 815.972 12.9112V219.361C815.972 222.482 817.533 224.042 820.656 224.042H826.079C829.201 224.042 830.762 222.482 830.762 219.361V191.769C830.762 188.648 832.323 187.088 835.445 187.088H841.115C844.237 187.088 845.798 185.528 845.798 182.407V176.987C845.798 173.867 847.359 172.306 850.482 172.306H892.633C895.755 172.306 897.316 173.867 897.316 176.987V219.361C897.316 222.482 895.755 224.042 892.633 224.042H887.21C884.088 224.042 882.526 225.602 882.526 228.723V234.143C882.526 237.263 880.965 238.824 877.843 238.824H754.101C750.979 238.824 749.418 237.263 749.418 234.143Z" fill="black"/>
<path d="M1023.01 234.143V71.0522C1023.01 67.9317 1024.57 66.3714 1027.69 66.3714H1062.7C1065.82 66.3714 1067.38 67.9317 1067.38 71.0522V91.2538C1067.38 94.3744 1068.94 95.9347 1072.06 95.9347H1077.49C1080.61 95.9347 1082.17 94.3744 1082.17 91.2538V85.8339C1082.17 82.7133 1083.73 81.153 1086.85 81.153H1092.28C1095.4 81.153 1096.96 79.5927 1096.96 76.4722V71.0522C1096.96 67.9317 1098.52 66.3714 1101.64 66.3714H1166.23C1169.35 66.3714 1170.91 67.9317 1170.91 71.0522V76.4722C1170.91 79.5927 1172.47 81.153 1175.59 81.153H1181.02C1184.14 81.153 1185.7 82.7133 1185.7 85.8339V234.143C1185.7 237.263 1184.14 238.824 1181.02 238.824H1123.83C1120.71 238.824 1119.15 237.263 1119.15 234.143V85.8339C1119.15 82.7133 1117.58 81.153 1114.46 81.153H1109.04C1105.92 81.153 1104.36 82.7133 1104.36 85.8339V91.2538C1104.36 94.3744 1102.79 95.9347 1099.67 95.9347H1094.25C1091.13 95.9347 1089.57 97.4949 1089.57 100.616V234.143C1089.57 237.263 1088 238.824 1084.88 238.824H1027.69C1024.57 238.824 1023.01 237.263 1023.01 234.143Z" fill="black"/>
<path d="M1220.2 234.143V5.52036C1220.2 2.39978 1221.76 0.839508 1224.88 0.839508H1282.07C1285.19 0.839508 1286.75 2.39978 1286.75 5.52036V133.135C1286.75 136.256 1288.31 137.816 1291.43 137.816H1296.86C1299.98 137.816 1301.54 136.256 1301.54 133.135V127.715C1301.54 124.595 1303.1 123.034 1306.22 123.034H1311.65C1314.77 123.034 1316.33 121.474 1316.33 118.353V71.0522C1316.33 67.9317 1317.89 66.3714 1321.01 66.3714H1378.2C1381.32 66.3714 1382.88 67.9317 1382.88 71.0522V133.135C1382.88 136.256 1381.32 137.816 1378.2 137.816H1335.8C1332.68 137.816 1331.12 139.376 1331.12 142.497V147.917C1331.12 151.037 1332.68 152.598 1335.8 152.598H1363.41C1366.53 152.598 1368.09 154.158 1368.09 157.278V162.698C1368.09 165.819 1369.66 167.379 1372.78 167.379H1378.2C1381.32 167.379 1382.88 168.939 1382.88 172.06V234.143C1382.88 237.263 1381.32 238.824 1378.2 238.824H1321.01C1317.89 238.824 1316.33 237.263 1316.33 234.143V172.06C1316.33 168.939 1314.77 167.379 1311.65 167.379H1306.22C1303.1 167.379 1301.54 165.819 1301.54 162.698V157.278C1301.54 154.158 1299.98 152.598 1296.86 152.598H1291.43C1288.31 152.598 1286.75 154.158 1286.75 157.278V234.143C1286.75 237.263 1285.19 238.824 1282.07 238.824H1224.88C1221.76 238.824 1220.2 237.263 1220.2 234.143Z" fill="black"/>
</g>
<path d="M928.465 245.289V82.1982C928.465 79.0777 930.026 77.5174 933.148 77.5174H990.336C993.458 77.5174 995.019 79.0777 995.019 82.1982V245.289C995.019 248.409 993.458 249.97 990.336 249.97H933.148C930.026 249.97 928.465 248.409 928.465 245.289Z" fill="#033122" fill-opacity="0.4"/>
<path d="M921.25 237.231V74.1399C921.25 71.0193 922.811 69.459 925.933 69.459H983.121C986.243 69.459 987.804 71.0193 987.804 74.1399V237.231C987.804 240.351 986.243 241.911 983.121 241.911H925.933C922.811 241.911 921.25 240.351 921.25 237.231Z" fill="black"/>
<g filter="url(#filter0_d_0_1)">
<path d="M926.537 54.857V39.4285L957.029 48.4285L986.857 39.4285V51.6428V55.4999L982.88 58.7142C982.88 58.7142 980.992 59.6029 979.566 59.9999C978.139 60.3969 975.589 60.6428 975.589 60.6428L969.623 61.2856H962.331H957.029H956.366H949.074H945.76L941.12 60.6428L935.817 59.357L930.514 58.0713L926.537 54.857Z" fill="black"/>
<path d="M957.029 48.4285L986.857 39.4285V51.6428V55.4999L982.88 58.7142C982.88 58.7142 980.992 59.6029 979.566 59.9999C978.139 60.3969 975.589 60.6428 975.589 60.6428L969.623 61.2856C969.623 61.2856 965.179 61.2856 962.331 61.2856C960.26 61.2856 957.029 61.2856 957.029 61.2856M957.029 48.4285L926.537 39.4285V54.857L930.514 58.0713L935.817 59.357L941.12 60.6428L945.76 61.2856H949.074H956.366H957.029M957.029 48.4285V61.2856" stroke="black"/>
</g>
<g filter="url(#filter1_d_0_1)">
<path d="M955.04 15L904 31.0714L957.691 48.4286L1010.72 31.0714L955.04 15Z" fill="black"/>
<path d="M955.04 15L904 31.0714L957.691 48.4286L1010.72 31.0714L955.04 15Z" stroke="black"/>
</g>
<g filter="url(#filter2_d_0_1)">
<path d="M935.817 62.5714V47.1428L966.309 56.1428L996.137 47.1428V59.3571V63.2143L992.16 66.4285C992.16 66.4285 990.272 67.3173 988.846 67.7143C987.419 68.1112 984.869 68.3571 984.869 68.3571L978.903 69H971.611H966.309H965.646H958.354H955.04L950.4 68.3571L945.097 67.0714L939.794 65.7857L935.817 62.5714Z" fill="#033122" fill-opacity="0.4" shape-rendering="crispEdges"/>
</g>
<g filter="url(#filter3_d_0_1)">
<path d="M964.32 22.7144L913.28 38.7858L966.971 56.1429L1020 38.7858L964.32 22.7144Z" fill="#033122" fill-opacity="0.4" shape-rendering="crispEdges"/>
</g>
<defs>
<filter id="filter0_d_0_1" x="922.037" y="38.7554" width="69.3199" height="31.0303" filterUnits="userSpaceOnUse" color-interpolation-filters="sRGB">
<feFlood flood-opacity="0" result="BackgroundImageFix"/>
<feColorMatrix in="SourceAlpha" type="matrix" values="0 0 0 0 0 0 0 0 0 0 0 0 0 0 0 0 0 0 127 0" result="hardAlpha"/>
<feOffset dy="4"/>
<feGaussianBlur stdDeviation="2"/>
<feComposite in2="hardAlpha" operator="out"/>
<feColorMatrix type="matrix" values="0 0 0 0 0 0 0 0 0 0 0 0 0 0 0 0 0 0 0.25 0"/>
<feBlend mode="normal" in2="BackgroundImageFix" result="effect1_dropShadow_0_1"/>
<feBlend mode="normal" in="SourceGraphic" in2="effect1_dropShadow_0_1" result="shape"/>
</filter>
<filter id="filter1_d_0_1" x="898.355" y="14.4778" width="118.064" height="42.4766" filterUnits="userSpaceOnUse" color-interpolation-filters="sRGB">
<feFlood flood-opacity="0" result="BackgroundImageFix"/>
<feColorMatrix in="SourceAlpha" type="matrix" values="0 0 0 0 0 0 0 0 0 0 0 0 0 0 0 0 0 0 127 0" result="hardAlpha"/>
<feOffset dy="4"/>
<feGaussianBlur stdDeviation="2"/>
<feComposite in2="hardAlpha" operator="out"/>
<feColorMatrix type="matrix" values="0 0 0 0 0 0 0 0 0 0 0 0 0 0 0 0 0 0 0.25 0"/>
<feBlend mode="normal" in2="BackgroundImageFix" result="effect1_dropShadow_0_1"/>
<feBlend mode="normal" in="SourceGraphic" in2="effect1_dropShadow_0_1" result="shape"/>
</filter>
<filter id="filter2_d_0_1" x="931.817" y="47.1428" width="68.3199" height="29.8572" filterUnits="userSpaceOnUse" color-interpolation-filters="sRGB">
<feFlood flood-opacity="0" result="BackgroundImageFix"/>
<feColorMatrix in="SourceAlpha" type="matrix" values="0 0 0 0 0 0 0 0 0 0 0 0 0 0 0 0 0 0 127 0" result="hardAlpha"/>
<feOffset dy="4"/>
<feGaussianBlur stdDeviation="2"/>
<feComposite in2="hardAlpha" operator="out"/>
<feColorMatrix type="matrix" values="0 0 0 0 0 0 0 0 0 0 0 0 0 0 0 0 0 0 0.25 0"/>
<feBlend mode="normal" in2="BackgroundImageFix" result="effect1_dropShadow_0_1"/>
<feBlend mode="normal" in="SourceGraphic" in2="effect1_dropShadow_0_1" result="shape"/>
</filter>
<filter id="filter3_d_0_1" x="909.28" y="22.7144" width="114.72" height="41.4285" filterUnits="userSpaceOnUse" color-interpolation-filters="sRGB">
<feFlood flood-opacity="0" result="BackgroundImageFix"/>
<feColorMatrix in="SourceAlpha" type="matrix" values="0 0 0 0 0 0 0 0 0 0 0 0 0 0 0 0 0 0 127 0" result="hardAlpha"/>
<feOffset dy="4"/>
<feGaussianBlur stdDeviation="2"/>
<feComposite in2="hardAlpha" operator="out"/>
<feColorMatrix type="matrix" values="0 0 0 0 0 0 0 0 0 0 0 0 0 0 0 0 0 0 0.25 0"/>
<feBlend mode="normal" in2="BackgroundImageFix" result="effect1_dropShadow_0_1"/>
<feBlend mode="normal" in="SourceGraphic" in2="effect1_dropShadow_0_1" result="shape"/>
</filter>
</defs>
</svg>
