<?xml version="1.0" encoding="UTF-8" standalone="no"?>
<!DOCTYPE svg PUBLIC "-//W3C//DTD SVG 1.1//EN" "http://www.w3.org/Graphics/SVG/1.1/DTD/svg11.dtd">
<svg xmlns="http://www.w3.org/2000/svg" xmlns:xlink="http://www.w3.org/1999/xlink" version="1.1" width="3999.9998pt" height="2250pt" viewBox="0 0 3999.9998 2250">
<g enable-background="new">
<clipPath id="cp0">
<path transform="matrix(.6666666,0,0,.6666666,0,0)" d="M 0 0 L 6000 0 L 6000 3375 L 0 3375 Z " fill-rule="evenodd"/>
</clipPath>
<g clip-path="url(#cp0)">
<path transform="matrix(2.0833333,0,0,2.0833333,0,0)" d="M 0 0 L 1920 0 L 1920 1080 L 0 1080 Z " fill="#ffffff"/>
</g>
<clipPath id="cp1">
<path transform="matrix(.6666666,0,0,.6666666,0,0)" d="M 0 0 L 6000 0 L 6000 3375 L 0 3375 Z " fill-rule="evenodd"/>
</clipPath>
<g clip-path="url(#cp1)">
<g id="Layer-1" data-name="Div">
<path transform="matrix(2.0833333,0,0,2.0833333,0,0)" d="M 0 0 L 1920 0 L 1920 1080 L 0 1080 Z " fill="#ffffff"/>
</g>
<clipPath id="cp2">
<path transform="matrix(.6666666,0,0,.6666666,0,0)" d="M 0 0 L 6000 0 L 6000 3375 L 0 3375 Z " fill-rule="evenodd"/>
</clipPath>
<g clip-path="url(#cp2)">
</g>
<g id="Layer-1" data-name="NonStruct">
</g>
<g id="Layer-1" data-name="NonStruct">
<symbol id="font_3_a">
<path d="M .12000001 .019000002 L .12000001 .041 C .12000001 .05366667 .113666679 .060000004 .101 .060000004 L .079 .060000004 C .066333349 .060000004 .060000015 .06633333 .06000001 .079 L .06000001 .101 C .060000015 .113666679 .053666679 .120000008 .04100001 .120000008 L .019000002 .120000008 C .006333334 .120000008 0 .12633334 0 .13900002 L 0 .79700008 C 0 .8096667 .006333334 .81600007 .019000002 .81600007 L .04100001 .81600007 C .053666679 .81600007 .060000015 .82233336 .06000001 .83500006 L .06000001 .85700008 C .060000015 .86966678 .066333349 .8760001 .079 .87600007 L .101 .87600007 C .113666679 .8760001 .12000001 .88233336 .12000001 .89500007 L .12000001 .91700008 C .12000001 .9296667 .12633334 .93600007 .139 .93600007 L .56500008 .93600007 C .5783334 .93600007 .58500006 .9293334 .58500006 .91600009 L .58500006 .896 C .58500006 .88266679 .5916667 .8760001 .605 .87600007 L .64000007 .87600007 C .65333339 .8760001 .66 .86933347 .66 .85600009 L .66 .68600007 C .66 .6726667 .65333339 .666 .64000007 .666 L .47000004 .666 C .4566667 .666 .45000006 .6726667 .45000006 .68600007 L .45000006 .707 C .45000006 .71966668 .4436667 .726 .43100006 .726 L .41000004 .726 C .39666669 .726 .39000003 .7326667 .39000003 .74600008 L .39000003 .85700008 C .39000003 .86966678 .38366667 .8760001 .37100003 .87600007 L .34900005 .87600007 C .33633337 .8760001 .33 .86966678 .33 .85700008 L .33 .83500006 C .33 .82233336 .3236667 .81600007 .31100003 .81600007 L .28900004 .81600007 C .27633337 .81600007 .27 .8096667 .27 .79700008 L .27 .13900002 C .27 .12633334 .27633337 .120000008 .28900004 .120000008 L .31100003 .120000008 C .3236667 .120000008 .33 .113666679 .33 .101 L .33 .079 C .33 .06633333 .33633337 .060000004 .34900005 .060000004 L .37100003 .060000004 C .38366667 .060000004 .39000003 .06633333 .39000003 .079 L .39000003 .27 C .39000003 .28266669 .38366667 .289 .37100003 .289 L .34900005 .289 C .33633337 .289 .33 .29533337 .33 .30800004 L .33 .41900004 C .33 .43233336 .33666668 .439 .35000003 .439 L .64000007 .439 C .65333339 .439 .66 .43233336 .66 .41900004 L .66 .019000002 C .66 .006333334 .6536667 0 .64100006 0 L .53200009 0 C .51933339 0 .513 .006333334 .513 .019000002 L .513 .040000004 C .513 .05333334 .50633338 .060000004 .49300004 .060000004 L .47300006 .060000004 C .4596667 .060000004 .45299999 .05333334 .453 .040000004 L .453 .020000002 C .45299999 .0066666675 .44633333 0 .43300004 0 L .139 0 C .12633334 0 .12000001 .006333334 .12000001 .019000002 Z "/>
</symbol>
<symbol id="font_3_30">
<path d="M 0 .019000002 L 0 .68100008 C 0 .6936667 .006333334 .70000007 .019000002 .70000007 L .16100002 .70000007 C .17366667 .70000007 .18 .6936667 .18 .68100008 L .18 .59900006 C .18 .58633336 .18633335 .58000007 .19900003 .58000007 L .22100002 .58000007 C .23366668 .58000007 .24000001 .58633336 .24000001 .59900006 L .24000001 .62100008 C .24000001 .6336667 .24633336 .64000007 .25900004 .64000007 L .28100003 .64000007 C .2936667 .64000007 .3 .6463334 .3 .65900006 L .3 .68100008 C .3 .6936667 .30633334 .70000007 .31900005 .70000007 L .49100007 .70000007 C .5036667 .70000007 .51000007 .6936667 .51000007 .68100008 L .51000007 .65900006 C .51000007 .6463334 .5163334 .64000007 .52900007 .64000007 L .55100008 .64000007 L .559 .64000007 L .55100008 .64000007 L .52900007 .64000007 L .521 .64000007 L .52900007 .64000007 L .55100008 .64000007 C .56366679 .64000007 .57000008 .6336667 .57000008 .62100008 L .57000008 .483 C .57000008 .47033335 .56366679 .46400003 .55100008 .46400003 L .34900005 .46400003 C .33633337 .46400003 .33 .47033335 .33 .483 L .33 .56100007 C .33 .57366678 .3236667 .58000007 .31100003 .58000007 L .28900004 .58000007 C .27633337 .58000007 .27 .57366678 .27 .56100007 L .27 .019000002 C .27 .006333334 .26366667 0 .25100003 0 L .019000002 0 C .006333334 0 0 .006333334 0 .019000002 Z "/>
</symbol>
<symbol id="font_3_1f">
<path d="M .37100003 .319 L .289 .319 C .27633334 .319 .27 .31266669 .27 .3 L .27 .079 C .27 .06633333 .27633334 .060000004 .289 .060000004 L .31100003 .060000004 C .3236667 .060000004 .33 .06633333 .33 .079 L .33 .101 C .33 .113666679 .33633337 .120000008 .349 .120000008 L .37100003 .120000008 C .38366667 .120000008 .39000003 .12633334 .39000003 .13900002 L .39000003 .3 C .39000003 .31266669 .38366667 .319 .37100003 .319 M .060000007 .019000002 L .060000007 .041 C .060000007 .05366667 .05366667 .060000004 .041000006 .060000004 L .019000005 .060000004 C .006333335 .060000004 0 .06633333 0 .079 L 0 .3 C 0 .31266669 .006333335 .319 .019000005 .319 L .041000006 .319 C .05366667 .319 .060000007 .32533337 .060000007 .33800004 L .060000007 .36 C .060000007 .3726667 .066333349 .37900005 .07900001 .379 L .31100003 .379 C .3236667 .37900005 .33 .38533334 .33 .39800004 L .33 .42000003 C .33 .4326667 .33633337 .439 .349 .439 L .40100003 .439 C .4136667 .439 .42 .44533337 .42000003 .45800004 L .42000003 .62100008 C .42 .6336667 .4136667 .64000007 .40100003 .64000007 L .349 .64000007 C .33633337 .64000007 .33 .6336667 .33 .62100008 L .33 .53900006 C .33 .5263334 .3236667 .52000007 .31100003 .52000007 L .289 .52000007 C .27633334 .52000007 .27 .5136667 .27 .50100007 L .27 .44900004 C .27 .43633334 .26366667 .42999999 .25100003 .43 L .049000008 .43 C .036333339 .42999999 .030000007 .43633334 .030000005 .44900004 L .030000005 .62100008 C .030000007 .6336667 .036333339 .64000007 .049000008 .64000007 L .08600001 .64000007 C .09866667 .64000007 .105 .6463334 .105000007 .65900006 L .105000007 .68100008 C .105 .6936667 .11133334 .70000007 .12400001 .70000007 L .58100005 .70000007 C .59366676 .70000007 .6 .6936667 .6 .68100008 L .6 .65900006 C .6 .6463334 .6063333 .64000007 .619 .64000007 L .64100006 .64000007 C .6536667 .64000007 .66 .6336667 .66 .62100008 L .66 .019000002 C .66 .006333334 .6536667 0 .64100006 0 L .46900005 0 C .4563333 0 .44999997 .006333334 .45 .019000002 L .45 .041 C .44999997 .05366667 .44366668 .060000004 .43100003 .060000004 L .409 .060000004 C .39633335 .060000004 .39000003 .05366667 .39000003 .041 L .39000003 .019000002 C .39000003 .006333334 .38366667 0 .37100003 0 L .07900001 0 C .066333349 0 .060000007 .006333334 .060000007 .019000002 Z "/>
</symbol>
<symbol id="font_3_22">
<path d="M .31100003 .58000007 L .28900004 .58000007 C .27633337 .58000007 .27 .5736667 .27 .561 L .27 .079 C .27 .06633333 .27633337 .060000004 .28900004 .060000004 L .31100003 .060000004 C .3236667 .060000004 .33 .06633333 .33 .079 L .33 .101 C .33 .113666679 .33633337 .120000008 .34900005 .120000008 L .37100003 .120000008 C .38366667 .120000008 .39000003 .12633334 .39000003 .13900002 L .39000003 .621 C .39000003 .6336667 .38366667 .64000007 .37100003 .64000007 L .34900005 .64000007 C .33633337 .64000007 .33 .6336667 .33 .621 L .33 .59900006 C .33 .58633336 .3236667 .58000007 .31100003 .58000007 M .12000001 .019000002 L .12000001 .041 C .12000001 .05366667 .113666679 .060000004 .101 .060000004 L .079 .060000004 C .066333349 .060000004 .060000015 .06633333 .06000001 .079 L .06000001 .101 C .060000015 .113666679 .053666679 .120000008 .04100001 .120000008 L .019000002 .120000008 C .006333334 .120000008 0 .12633334 0 .13900002 L 0 .561 C 0 .5736667 .006333334 .58000007 .019000002 .58000007 L .04100001 .58000007 C .053666679 .58000007 .060000015 .58633336 .06000001 .59900006 L .06000001 .621 C .060000015 .6336667 .066333349 .64000007 .079 .64000007 L .101 .64000007 C .113666679 .64000007 .12000001 .6463334 .12000001 .65900006 L .12000001 .681 C .12000001 .6936667 .12633334 .70000007 .139 .70000007 L .37100003 .70000007 C .38366667 .70000007 .39000003 .7063334 .39000003 .71900007 L .39000003 .948 C .39000003 .96066668 .39633338 .967 .40900005 .967 L .64100006 .967 C .6536667 .967 .66 .96066668 .66 .948 L .66 .019000002 C .66 .006333334 .6536667 0 .64100006 0 L .139 0 C .12633334 0 .12000001 .006333334 .12000001 .019000002 Z "/>
</symbol>
<use xlink:href="#font_3_a" transform="matrix(371.0208,0,0,-371.0208,954.0811,1138.795)" fill="#033122" fill-opacity=".4"/>
<use xlink:href="#font_3_30" transform="matrix(371.0208,0,0,-371.0208,1250.878,1138.795)" fill="#033122" fill-opacity=".4"/>
<use xlink:href="#font_3_1f" transform="matrix(371.0208,0,0,-371.0208,1488.3152,1138.795)" fill="#033122" fill-opacity=".4"/>
<use xlink:href="#font_3_22" transform="matrix(371.0208,0,0,-371.0208,1785.1126,1139.166)" fill="#033122" fill-opacity=".4"/>
</g>
<g id="Layer-1" data-name="NonStruct">
<symbol id="font_3_f">
<path d="M 0 .019000002 L 0 .91700008 C 0 .9296667 .006333334 .93600007 .019000002 .93600007 L .25100003 .93600007 C .26366667 .93600007 .27 .9296667 .27 .91700008 L .27 .079 C .27 .06633333 .27633337 .060000004 .28900004 .060000004 L .31100003 .060000004 C .3236667 .060000004 .33 .06633333 .33 .079 L .33 .19100002 C .33 .20366669 .33633337 .21 .34900005 .21000001 L .37200005 .21000001 C .38466669 .21 .39100004 .21633335 .39100004 .22900002 L .39100004 .25100003 C .39100004 .26366667 .39733339 .27 .41000004 .27 L .58100005 .27 C .59366676 .27 .6 .26366667 .6 .25100003 L .6 .079 C .6 .06633333 .59366676 .060000004 .58100005 .060000004 L .559 .060000004 C .5463334 .060000004 .54 .05366667 .54 .041 L .54 .019000002 C .54 .006333334 .5336667 0 .521 0 L .019000002 0 C .006333334 0 0 .006333334 0 .019000002 Z "/>
</symbol>
<symbol id="font_3_27">
<path d="M .009999998 .019000002 L .009999998 .68100008 C .009999998 .6936667 .016333333 .70000007 .029 .70000007 L .261 .70000007 C .27366666 .70000007 .28 .6936667 .28 .68100008 L .28 .019000002 C .28 .006333334 .27366666 0 .261 0 L .029 0 C .016333333 0 .009999998 .006333334 .009999998 .019000002 M .04 .77900007 L .04 .781 C .04 .79366669 .033 .8 .019000002 .8 C .006333334 .8 0 .80633339 0 .81900009 L 0 .9110001 C 0 .9236667 .0069999995 .93000009 .020999998 .93000009 C .033666668 .93000009 .04 .93700006 .04 .95100006 C .04 .9636667 .04633333 .97 .059 .97 L .231 .97 C .24366667 .97 .25 .96300008 .25 .94900009 C .25 .9363334 .257 .93000009 .27100004 .93000009 C .2836667 .93000009 .29000003 .9236667 .29000003 .9110001 L .29000003 .81900009 C .29000003 .80633339 .28300003 .8 .26900003 .8 C .25633336 .8 .25 .79300007 .25 .77900007 C .25 .7663334 .24366667 .76000007 .231 .76000007 L .059 .76000007 C .04633333 .76000007 .04 .7663334 .04 .77900007 Z "/>
</symbol>
<symbol id="font_3_2c">
<path d="M 0 .019000002 L 0 .68100008 C 0 .6936667 .006333334 .70000007 .019000002 .70000007 L .16100002 .70000007 C .17366667 .70000007 .18 .6936667 .18 .68100008 L .18 .59900006 C .18 .58633336 .18633335 .58000007 .19900003 .58000007 L .22100002 .58000007 C .23366668 .58000007 .24000001 .58633336 .24000001 .59900006 L .24000001 .62100008 C .24000001 .6336667 .24633336 .64000007 .25900004 .64000007 L .28100003 .64000007 C .2936667 .64000007 .3 .6463334 .3 .65900006 L .3 .68100008 C .3 .6936667 .30633334 .70000007 .31900005 .70000007 L .58100005 .70000007 C .59366676 .70000007 .6 .6936667 .6 .68100008 L .6 .65900006 C .6 .6463334 .6063333 .64000007 .619 .64000007 L .64100006 .64000007 L .64900007 .64000007 L .64100006 .64000007 L .619 .64000007 L .61100009 .64000007 L .619 .64000007 L .64100006 .64000007 C .6536667 .64000007 .66 .6336667 .66 .62100008 L .66 .019000002 C .66 .006333334 .6536667 0 .64100006 0 L .40900005 0 C .39633338 0 .39000003 .006333334 .39000003 .019000002 L .39000003 .62100008 C .39000003 .6336667 .38366667 .64000007 .37100003 .64000007 L .34900005 .64000007 C .33633337 .64000007 .33 .6336667 .33 .62100008 L .33 .59900006 C .33 .58633336 .3236667 .58000007 .31100003 .58000007 L .28900004 .58000007 C .27633337 .58000007 .27 .57366678 .27 .56100007 L .27 .019000002 C .27 .006333334 .26366667 0 .25100003 0 L .019000002 0 C .006333334 0 0 .006333334 0 .019000002 Z "/>
</symbol>
<symbol id="font_3_29">
<path d="M 0 .019000002 L 0 .947 C 0 .9596667 .006333334 .966 .019000002 .966 L .25100003 .966 C .26366667 .966 .27 .9596667 .27 .947 L .27 .42900003 C .27 .41633336 .27633337 .41 .28900004 .41000004 L .31100003 .41000004 C .3236667 .41 .33 .41633336 .33 .42900003 L .33 .45100004 C .33 .46366669 .33633337 .47000004 .34900005 .47000004 L .37100003 .47000004 C .38366667 .47000004 .39000003 .47633339 .39000003 .48900003 L .39000003 .68100008 C .39000003 .6936667 .39633338 .70000007 .40900005 .70000007 L .64100006 .70000007 C .6536667 .70000007 .66 .6936667 .66 .68100008 L .66 .42900003 C .66 .41633336 .6536667 .41 .64100006 .41000004 L .46900005 .41000004 C .4563334 .41 .45000006 .4036667 .45000006 .39100004 L .45000006 .36900003 C .45000006 .35633336 .4563334 .35000003 .46900005 .35000003 L .58100005 .35000003 C .59366676 .35000003 .6 .3436667 .6 .33100004 L .6 .30900003 C .6 .29633335 .6063333 .29000003 .619 .29000003 L .64100006 .29000003 C .6536667 .29000003 .66 .2836667 .66 .27100004 L .66 .019000002 C .66 .006333334 .6536667 0 .64100006 0 L .40900005 0 C .39633338 0 .39000003 .006333334 .39000003 .019000002 L .39000003 .27100004 C .39000003 .2836667 .38366667 .29000003 .37100003 .29000003 L .34900005 .29000003 C .33633337 .29000003 .33 .29633335 .33 .30900003 L .33 .33100004 C .33 .3436667 .3236667 .35000003 .31100003 .35000003 L .28900004 .35000003 C .27633337 .35000003 .27 .3436667 .27 .33100004 L .27 .019000002 C .27 .006333334 .26366667 0 .25100003 0 L .019000002 0 C .006333334 0 0 .006333334 0 .019000002 Z "/>
</symbol>
<use xlink:href="#font_3_f" transform="matrix(371.0208,0,0,-371.0208,2081.913,1138.795)" fill="#033122" fill-opacity=".4"/>
<use xlink:href="#font_3_27" transform="matrix(371.0208,0,0,-371.0208,2337.9002,1138.795)" fill="#033122" fill-opacity=".4"/>
<use xlink:href="#font_3_2c" transform="matrix(371.0208,0,0,-371.0208,2493.7188,1138.795)" fill="#033122" fill-opacity=".4"/>
<use xlink:href="#font_3_29" transform="matrix(371.0208,0,0,-371.0208,2790.5157,1138.795)" fill="#033122" fill-opacity=".4"/>
</g>
<g id="Layer-1" data-name="H1">
<g id="Layer-2" data-name="NonStruct">
</g>
<g id="Layer-2" data-name="NonStruct">
<use xlink:href="#font_3_a" transform="matrix(371.0208,0,0,-371.0208,936.44607,1125.9823)" fill="#033122"/>
<use xlink:href="#font_3_30" transform="matrix(371.0208,0,0,-371.0208,1233.2429,1125.9823)" fill="#033122"/>
<use xlink:href="#font_3_1f" transform="matrix(371.0208,0,0,-371.0208,1470.68,1125.9823)" fill="#033122"/>
<use xlink:href="#font_3_22" transform="matrix(371.0208,0,0,-371.0208,1767.4776,1126.3533)" fill="#033122"/>
</g>
<g id="Layer-2" data-name="NonStruct">
<symbol id="font_4_f">
<path d="M 0 .019000002 L 0 .91700008 C 0 .9296667 .006333334 .93600007 .019000002 .93600007 L .25100003 .93600007 C .26366667 .93600007 .27 .9296667 .27 .91700008 L .27 .079 C .27 .06633333 .27633337 .060000004 .28900004 .060000004 L .31100003 .060000004 C .3236667 .060000004 .33 .06633333 .33 .079 L .33 .19100002 C .33 .20366669 .33633337 .21 .34900005 .21000001 L .37200005 .21000001 C .38466669 .21 .39100004 .21633335 .39100004 .22900002 L .39100004 .25100003 C .39100004 .26366667 .39733339 .27 .41000004 .27 L .58100005 .27 C .59366676 .27 .6 .26366667 .6 .25100003 L .6 .079 C .6 .06633333 .59366676 .060000004 .58100005 .060000004 L .559 .060000004 C .5463334 .060000004 .54 .05366667 .54 .041 L .54 .019000002 C .54 .006333334 .5336667 0 .521 0 L .019000002 0 C .006333334 0 0 .006333334 0 .019000002 Z "/>
</symbol>
<symbol id="font_4_27">
<path d="M .009999998 .019000002 L .009999998 .68100008 C .009999998 .6936667 .016333333 .70000007 .029 .70000007 L .261 .70000007 C .27366666 .70000007 .28 .6936667 .28 .68100008 L .28 .019000002 C .28 .006333334 .27366666 0 .261 0 L .029 0 C .016333333 0 .009999998 .006333334 .009999998 .019000002 M .04 .77900007 L .04 .781 C .04 .79366669 .033 .8 .019000002 .8 C .006333334 .8 0 .80633339 0 .81900009 L 0 .9110001 C 0 .9236667 .0069999995 .93000009 .020999998 .93000009 C .033666668 .93000009 .04 .93700006 .04 .95100006 C .04 .9636667 .04633333 .97 .059 .97 L .231 .97 C .24366667 .97 .25 .96300008 .25 .94900009 C .25 .9363334 .257 .93000009 .27100004 .93000009 C .2836667 .93000009 .29000003 .9236667 .29000003 .9110001 L .29000003 .81900009 C .29000003 .80633339 .28300003 .8 .26900003 .8 C .25633336 .8 .25 .79300007 .25 .77900007 C .25 .7663334 .24366667 .76000007 .231 .76000007 L .059 .76000007 C .04633333 .76000007 .04 .7663334 .04 .77900007 Z "/>
</symbol>
<symbol id="font_4_2c">
<path d="M 0 .019000002 L 0 .68100008 C 0 .6936667 .006333334 .70000007 .019000002 .70000007 L .16100002 .70000007 C .17366667 .70000007 .18 .6936667 .18 .68100008 L .18 .59900006 C .18 .58633336 .18633335 .58000007 .19900003 .58000007 L .22100002 .58000007 C .23366668 .58000007 .24000001 .58633336 .24000001 .59900006 L .24000001 .62100008 C .24000001 .6336667 .24633336 .64000007 .25900004 .64000007 L .28100003 .64000007 C .2936667 .64000007 .3 .6463334 .3 .65900006 L .3 .68100008 C .3 .6936667 .30633334 .70000007 .31900005 .70000007 L .58100005 .70000007 C .59366676 .70000007 .6 .6936667 .6 .68100008 L .6 .65900006 C .6 .6463334 .6063333 .64000007 .619 .64000007 L .64100006 .64000007 L .64900007 .64000007 L .64100006 .64000007 L .619 .64000007 L .61100009 .64000007 L .619 .64000007 L .64100006 .64000007 C .6536667 .64000007 .66 .6336667 .66 .62100008 L .66 .019000002 C .66 .006333334 .6536667 0 .64100006 0 L .40900005 0 C .39633338 0 .39000003 .006333334 .39000003 .019000002 L .39000003 .62100008 C .39000003 .6336667 .38366667 .64000007 .37100003 .64000007 L .34900005 .64000007 C .33633337 .64000007 .33 .6336667 .33 .62100008 L .33 .59900006 C .33 .58633336 .3236667 .58000007 .31100003 .58000007 L .28900004 .58000007 C .27633337 .58000007 .27 .57366678 .27 .56100007 L .27 .019000002 C .27 .006333334 .26366667 0 .25100003 0 L .019000002 0 C .006333334 0 0 .006333334 0 .019000002 Z "/>
</symbol>
<symbol id="font_4_29">
<path d="M 0 .019000002 L 0 .947 C 0 .9596667 .006333334 .966 .019000002 .966 L .25100003 .966 C .26366667 .966 .27 .9596667 .27 .947 L .27 .42900003 C .27 .41633336 .27633337 .41 .28900004 .41000004 L .31100003 .41000004 C .3236667 .41 .33 .41633336 .33 .42900003 L .33 .45100004 C .33 .46366669 .33633337 .47000004 .34900005 .47000004 L .37100003 .47000004 C .38366667 .47000004 .39000003 .47633339 .39000003 .48900003 L .39000003 .68100008 C .39000003 .6936667 .39633338 .70000007 .40900005 .70000007 L .64100006 .70000007 C .6536667 .70000007 .66 .6936667 .66 .68100008 L .66 .42900003 C .66 .41633336 .6536667 .41 .64100006 .41000004 L .46900005 .41000004 C .4563334 .41 .45000006 .4036667 .45000006 .39100004 L .45000006 .36900003 C .45000006 .35633336 .4563334 .35000003 .46900005 .35000003 L .58100005 .35000003 C .59366676 .35000003 .6 .3436667 .6 .33100004 L .6 .30900003 C .6 .29633335 .6063333 .29000003 .619 .29000003 L .64100006 .29000003 C .6536667 .29000003 .66 .2836667 .66 .27100004 L .66 .019000002 C .66 .006333334 .6536667 0 .64100006 0 L .40900005 0 C .39633338 0 .39000003 .006333334 .39000003 .019000002 L .39000003 .27100004 C .39000003 .2836667 .38366667 .29000003 .37100003 .29000003 L .34900005 .29000003 C .33633337 .29000003 .33 .29633335 .33 .30900003 L .33 .33100004 C .33 .3436667 .3236667 .35000003 .31100003 .35000003 L .28900004 .35000003 C .27633337 .35000003 .27 .3436667 .27 .33100004 L .27 .019000002 C .27 .006333334 .26366667 0 .25100003 0 L .019000002 0 C .006333334 0 0 .006333334 0 .019000002 Z "/>
</symbol>
<use xlink:href="#font_4_f" transform="matrix(371.0208,0,0,-371.0208,2064.278,1125.9823)"/>
<use xlink:href="#font_4_27" transform="matrix(371.0208,0,0,-371.0208,2320.2652,1125.9823)"/>
<use xlink:href="#font_4_2c" transform="matrix(371.0208,0,0,-371.0208,2476.0838,1125.9823)"/>
<use xlink:href="#font_4_29" transform="matrix(371.0208,0,0,-371.0208,2772.8807,1125.9823)"/>
</g>
</g>
</g>
</g>
</svg>
